# xmcd CD database file
#
# Track frame offsets:
#	150
#	21995
#	40937
#	60165
#	78781
#	97465
#	115287
#	119892
#	137609
#	158130
#	180729
#
# Disc length: 2795 seconds
#
# Revision: 0
# Processed by: cddbd v1.5.1PL0 Copyright (c) Steve Scherf et al.
# Submitted via: CDex 1.51
#
DISCID=940ae90b
DTITLE=Thierry Fanfant - Intimes
DYEAR=2005
DGENRE=Jazz
TTITLE0=Bee Green
TTITLE1=La Macaque
TTITLE2=An Didan Mwen
TTITLE3=Juste Un Zeste
TTITLE4=Intimes
TTITLE5=Pou Vou
TTITLE6=Didou
TTITLE7=Matin De Janvier
TTITLE8=Pani Ayen
TTITLE9=Ernest and Firmin
TTITLE10=Pure Love
EXTD=YEAR: 2005
EXTT0=
EXTT1=
EXTT2=
EXTT3=
EXTT4=
EXTT5=
EXTT6=
EXTT7=
EXTT8=
EXTT9=
EXTT10=
PLAYORDER=
